# xmcd CD database file
#
# Track frame offsets:
#	150
#	27363
#	55214
#	100241
#	128214
#	156194
#	175642
#
# Disc length: 2748 seconds
#
# Revision: 0
# Processed by: cddbd v1.5.1PL2 Copyright (c) Steve Scherf et al.
# Submitted via: CDex 1.51
#
DISCID=530aba07
DTITLE=Lanz, David - Cristofori's Dream
DYEAR=1988
DGENRE=New Age
TTITLE0=Cristofori's Dream
TTITLE1=Spiral Dance
TTITLE2=Green Into Gold
TTITLE3=Wings To Altair
TTITLE4=Summer's Child
TTITLE5=Free Fall
TTITLE6=A Whiter Shade Of Pale
EXTD=YEAR: 1988
EXTT0=
EXTT1=
EXTT2=
EXTT3=
EXTT4=
EXTT5=
EXTT6=
PLAYORDER=
